<?xml version="1.0" standalone="no"?>
<!DOCTYPE svg PUBLIC "-//W3C//DTD SVG 20010904//EN"
 "http://www.w3.org/TR/2001/REC-SVG-20010904/DTD/svg10.dtd">
<svg version="1.0" xmlns="http://www.w3.org/2000/svg"
 width="840.000000pt" height="859.000000pt" viewBox="0 0 840.000000 859.000000"
 preserveAspectRatio="xMidYMid meet">
<metadata>
Created by potrace 1.16, written by Peter Selinger 2001-2019
</metadata>
<g transform="translate(0.000000,859.000000) scale(0.100000,-0.100000)"
fill="#000000" stroke="none">
<path d="M2626 8508 c29 -97 147 -282 268 -423 l85 -100 -47 -3 c-26 -2 -110
2 -187 8 -202 17 -353 71 -490 175 -25 19 -47 35 -50 35 -9 0 45 -101 91 -170
60 -92 162 -208 218 -250 l47 -34 -63 -22 c-121 -41 -276 -132 -404 -239 -79
-66 -264 -246 -264 -257 0 -4 48 17 108 46 59 30 146 67 194 84 96 34 208 52
208 33 0 -6 -19 -42 -42 -79 -177 -282 -379 -516 -496 -574 -55 -28 -56 -31
-8 -42 23 -6 27 -9 15 -17 -17 -11 75 -4 218 17 87 13 134 24 257 61 18 6 18
1 12 -73 -9 -96 -37 -212 -77 -316 -29 -75 -121 -232 -161 -275 -12 -13 -19
-26 -15 -29 22 -22 192 92 284 189 40 43 75 77 77 77 2 0 -2 -26 -10 -59 -26
-115 -88 -226 -168 -304 -35 -34 -38 -39 -16 -32 38 12 130 56 181 87 25 15
48 28 51 28 3 0 8 -65 11 -145 3 -79 10 -152 16 -162 9 -16 10 -16 11 4 0 27
46 163 59 176 6 6 21 -13 42 -54 74 -149 192 -285 299 -347 43 -25 247 -200
249 -214 1 -3 -34 -18 -76 -32 -88 -28 -205 -42 -438 -52 -245 -10 -358 -39
-468 -122 -123 -94 -203 -227 -284 -472 -24 -74 -50 -144 -57 -155 -8 -11 -41
-31 -74 -44 -65 -25 -68 -28 -91 -111 -14 -49 -20 -56 -56 -70 -27 -10 -76
-52 -150 -129 -118 -121 -256 -238 -382 -322 -43 -29 -161 -111 -263 -184
-102 -72 -248 -175 -325 -230 -77 -54 -143 -101 -147 -104 -17 -14 -56 -223
-48 -249 61 -190 191 -648 187 -660 -3 -9 -11 -30 -17 -47 -11 -27 -8 -40 25
-123 l37 -93 -11 -87 c-13 -101 -50 -329 -57 -354 -3 -11 12 -26 55 -52 32
-20 96 -69 140 -110 59 -53 95 -77 127 -86 25 -7 52 -22 59 -34 28 -44 56
-156 67 -266 10 -103 14 -118 38 -145 15 -16 60 -91 99 -166 49 -93 80 -140
97 -147 25 -12 74 -108 95 -186 8 -30 26 -54 66 -90 41 -37 66 -71 103 -145
26 -54 55 -103 64 -110 9 -8 16 -21 16 -30 0 -9 12 -28 25 -44 l24 -27 3106 0
c1990 0 3105 3 3105 10 0 55 -101 141 -216 183 -65 23 -257 48 -304 39 -8 -2
-105 -5 -215 -7 -175 -3 -208 -1 -265 16 -120 35 -165 82 -165 169 0 75 18
113 91 195 34 39 64 79 68 90 15 49 -106 198 -198 244 -73 36 -212 81 -283 91
-138 19 -349 -49 -493 -159 -167 -128 -315 -220 -429 -267 -104 -42 -291 -73
-397 -65 -78 5 -97 10 -132 34 -105 73 -208 215 -288 398 -42 94 -44 105 -38
159 6 57 -1 96 -40 216 -12 34 -11 46 0 73 12 27 11 33 -1 37 -8 4 -15 17 -15
30 0 23 2 24 58 18 31 -4 57 -7 57 -8 0 -23 162 -475 192 -537 57 -117 134
-200 211 -229 152 -57 268 -66 396 -31 112 31 172 65 249 140 133 130 172 199
196 351 8 47 6 72 -6 118 -10 33 -17 98 -17 155 l-1 98 66 62 c36 34 88 81
117 105 29 24 55 54 58 67 3 14 9 25 13 25 3 -1 26 -28 51 -61 67 -90 237
-249 302 -282 31 -16 87 -33 126 -39 l70 -10 69 40 c38 23 83 54 99 70 56 55
92 69 194 75 144 9 157 3 312 -132 167 -148 182 -154 284 -115 49 19 102 51
155 92 92 73 113 108 135 231 20 113 18 165 -8 211 -24 41 -38 49 -123 69 -69
17 -88 36 -82 84 8 55 31 77 83 77 23 0 62 9 87 19 56 24 71 59 71 165 -1 71
-5 92 -39 169 -37 86 -72 127 -110 127 -30 0 -75 30 -81 54 -4 19 22 66 127
227 87 134 138 220 147 254 7 27 17 131 22 230 8 177 36 556 44 605 2 13 -4
71 -14 128 l-17 104 39 81 c75 153 116 274 143 417 2 14 15 69 29 123 36 138
50 292 43 476 -8 218 -29 349 -87 551 -28 96 -56 195 -62 220 -5 25 -19 54
-29 66 -10 11 -19 30 -19 42 0 12 -9 31 -19 41 -10 10 -22 30 -26 43 -29 96
-138 254 -288 419 -96 105 -345 317 -430 365 -102 58 -279 137 -357 160 -199
58 -510 95 -692 82 -235 -16 -605 -121 -778 -221 -149 -86 -297 -180 -340
-216 l-46 -39 -27 42 c-14 22 -54 69 -87 104 -33 34 -60 65 -60 69 0 16 187
-22 273 -56 39 -15 34 -2 -26 60 -69 73 -127 114 -188 134 -40 14 -49 20 -43
34 50 116 68 232 60 381 -6 108 -26 233 -40 247 -3 4 -6 -21 -6 -54 0 -33 -9
-94 -19 -135 -19 -72 -71 -191 -89 -202 -5 -3 -14 54 -21 127 -17 183 -44 286
-96 361 -66 97 -124 201 -150 269 -13 35 -25 56 -28 47 -3 -8 -8 -68 -11 -132
-6 -117 -23 -265 -33 -281 -3 -4 -31 37 -64 92 -32 55 -83 126 -113 158 -45
48 -530 413 -550 413 -3 0 44 -96 105 -214 60 -118 109 -221 109 -230 0 -11
-33 1 -124 45 -148 70 -356 142 -481 164 -112 21 -339 85 -444 125 -43 17
-107 49 -141 71 -56 36 -61 37 -54 17z m3821 -1204 c34 -4 44 -10 52 -32 l11
-27 -5 28 c-5 24 -3 27 17 23 13 -3 64 -12 113 -21 50 -9 131 -28 180 -42 91
-26 257 -96 286 -120 8 -7 19 -13 22 -13 4 0 16 -9 27 -20 12 -12 25 -18 30
-15 5 3 15 -4 23 -15 7 -11 17 -17 20 -14 8 9 289 -218 310 -250 9 -14 17 -33
17 -43 0 -13 3 -14 11 -6 9 9 20 1 45 -29 19 -22 34 -46 34 -55 0 -8 4 -12 9
-8 13 8 54 -53 47 -70 -3 -8 -1 -15 3 -15 5 0 11 5 13 11 9 26 178 -241 178
-280 0 -10 9 -26 20 -36 23 -20 26 -55 8 -74 -11 -11 -9 -12 8 -7 30 9 44 -12
50 -75 6 -59 -1 -57 -39 12 -31 55 -27 26 5 -41 29 -62 31 -64 40 -40 13 34
20 20 57 -120 35 -128 37 -148 15 -107 -9 16 -17 27 -19 25 -2 -2 7 -44 21
-93 33 -123 32 -137 -13 -176 -21 -17 -30 -29 -20 -25 51 17 62 17 75 -5 12
-19 12 -21 0 -16 -11 4 -19 -8 -28 -44 -14 -52 -26 -54 -33 -4 -2 17 -5 -4 -6
-46 -1 -70 -4 -81 -35 -127 -19 -27 -41 -65 -49 -83 -8 -19 -35 -56 -60 -84
l-44 -50 -7 90 c-13 162 -69 338 -198 627 -30 66 -183 214 -273 263 -38 21
-105 65 -149 97 -97 73 -180 115 -316 161 -221 75 -465 93 -670 48 -201 -44
-405 -136 -565 -257 -87 -65 -235 -217 -298 -306 -93 -130 -191 -376 -222
-558 -33 -196 -15 -486 42 -649 14 -42 27 -87 29 -99 1 -13 19 -54 38 -92 30
-57 33 -68 19 -66 -10 2 -31 27 -48 59 -16 31 -33 57 -37 57 -10 0 58 -136 72
-145 6 -4 17 -2 25 5 10 8 15 8 21 -1 4 -7 3 -9 -3 -6 -18 11 -22 -19 -6 -42
26 -38 8 -45 -25 -10 -18 19 -32 28 -32 21 0 -7 -5 -10 -10 -7 -8 5 -8 11 0
20 7 9 6 16 -3 24 -8 6 -16 8 -19 6 -3 -3 -18 19 -34 50 -25 47 -44 69 -44 49
0 -15 43 -96 65 -122 13 -16 22 -32 18 -36 -3 -3 -1 -6 5 -6 7 0 12 -4 12 -10
0 -5 -7 -7 -15 -4 -11 5 -15 -1 -15 -20 0 -16 -6 -26 -14 -26 -8 0 -17 -6 -20
-12 -3 -7 -3 -2 0 12 4 14 11 28 16 31 5 3 3 9 -6 12 -12 5 -16 0 -16 -18 0
-14 -5 -25 -11 -25 -6 0 -8 7 -4 18 5 13 4 14 -6 5 -10 -10 -9 -15 0 -27 14
-16 6 -40 -9 -31 -5 3 -19 1 -31 -6 -12 -6 -19 -7 -15 -1 3 5 -1 12 -9 16 -16
6 -40 -28 -30 -44 3 -6 -1 -7 -10 -4 -10 4 -14 1 -12 -7 2 -8 2 -11 0 -6 -3 4
-9 7 -14 7 -6 0 -7 -5 -4 -10 4 -6 1 -17 -5 -25 -6 -8 -9 -18 -6 -24 3 -5 -9
-8 -29 -7 -19 1 -35 -2 -35 -6 0 -5 5 -8 10 -8 6 0 10 -4 10 -10 0 -5 -8 -6
-17 -3 -15 6 -16 4 -6 -9 7 -8 10 -18 6 -21 -3 -4 -12 1 -20 11 -12 15 -13 12
-7 -22 5 -28 4 -37 -5 -32 -17 11 -13 -9 9 -36 10 -14 26 -45 34 -69 l15 -44
-53 58 c-29 31 -56 57 -60 57 -11 0 29 -53 84 -111 46 -48 108 -154 97 -165
-2 -3 -31 4 -63 15 -59 21 -58 21 -202 181 -52 58 -36 16 19 -50 47 -57 49
-60 20 -46 -35 18 -149 128 -202 196 -71 89 -130 181 -174 271 -24 50 -48 96
-53 103 -5 6 -19 37 -32 69 -17 44 -20 60 -11 71 9 11 7 15 -8 19 -14 3 -27
30 -51 103 -45 140 -60 242 -67 453 l-6 183 21 -11 c12 -7 22 -8 22 -3 0 6 -8
12 -19 15 -10 2 -20 16 -23 30 -6 31 -2 37 25 37 18 0 18 1 -3 18 -21 17 -21
20 -11 134 11 119 41 249 89 392 20 61 33 84 52 93 18 9 20 13 8 13 -21 0 -24
23 -4 39 8 7 12 20 9 30 -3 10 0 22 6 25 6 4 11 18 11 32 0 14 7 27 15 30 8 4
15 14 15 24 0 35 114 220 136 220 7 0 11 6 8 14 -5 12 139 204 166 221 6 4 22
24 36 46 13 22 35 44 47 50 13 6 27 20 32 32 6 12 20 26 33 32 12 5 22 17 22
26 0 10 15 26 32 38 l33 20 27 -26 c33 -32 38 -20 6 15 l-23 24 50 45 c73 67
294 212 347 229 13 4 25 10 28 13 5 7 74 41 139 68 116 49 459 138 492 128 10
-3 20 -1 24 5 8 12 102 13 110 1 3 -5 -5 -12 -17 -14 -13 -2 15 -4 62 -4 47 0
72 2 55 4 -53 6 -75 13 -75 23 0 9 173 5 267 -6z m-3404 -109 c100 -244 147
-345 195 -419 53 -82 221 -299 210 -271 -2 6 -25 54 -51 108 -26 54 -47 104
-47 110 1 7 16 -6 35 -28 19 -22 35 -37 35 -33 0 3 -18 41 -40 83 -52 103 -95
224 -131 367 -16 65 -29 123 -29 128 0 21 85 -55 265 -236 173 -173 315 -325
315 -337 0 -3 -30 -27 -66 -52 -88 -63 -132 -102 -164 -147 -24 -32 -26 -43
-20 -78 7 -38 16 -59 23 -49 38 54 102 137 141 183 l50 58 -54 -26 -55 -27 30
26 c17 14 53 42 82 62 59 40 65 39 104 -24 l22 -35 -32 -25 c-70 -55 -137
-205 -114 -257 8 -16 11 -9 17 37 13 118 100 226 208 260 66 21 186 22 232 3
44 -18 111 -79 125 -114 6 -15 16 -40 22 -57 l12 -30 7 25 c6 21 9 17 15 -27
4 -29 11 -51 15 -48 4 2 13 38 21 80 13 76 28 98 31 48 0 -16 2 -32 3 -38 2
-5 3 -17 4 -25 1 -11 4 -11 13 4 6 10 13 59 16 108 4 73 7 87 18 76 14 -14 54
-132 54 -157 0 -9 -32 -61 -71 -116 -38 -55 -88 -137 -109 -182 -66 -138 -150
-418 -184 -611 -16 -97 -27 -112 -151 -204 -96 -72 -191 -122 -305 -159 -73
-24 -80 -28 -50 -30 32 -1 31 -2 -13 -9 -76 -13 -139 3 -306 81 -267 125 -439
297 -597 595 -30 55 -54 104 -54 107 0 4 23 -2 50 -13 28 -11 54 -20 57 -20 3
0 -18 26 -48 58 -77 81 -209 275 -197 287 2 3 25 -23 50 -58 55 -74 156 -187
168 -187 5 0 -7 33 -25 73 -64 139 -119 329 -113 394 l4 38 12 -27 c6 -15 32
-63 56 -107 45 -79 45 -79 34 -133 -7 -33 -8 -65 -3 -83 8 -27 10 -24 15 30 8
70 14 88 48 134 34 45 93 71 167 71 99 0 174 -49 223 -145 12 -22 21 -34 22
-27 1 28 -51 110 -85 137 -69 52 -186 70 -257 41 -19 -8 -51 -31 -73 -50 -21
-20 -40 -36 -42 -36 -2 0 -3 48 -3 106 l0 107 88 -6 c107 -8 188 -32 289 -87
57 -31 73 -37 59 -21 -47 52 -228 116 -388 136 l-47 6 5 47 c4 26 11 52 18 57
6 6 12 17 13 25 3 27 42 214 53 255 39 140 134 366 148 349 5 -5 16 -27 25
-49z m835 -187 c45 -57 101 -125 126 -153 25 -27 44 -51 42 -52 -5 -6 -160
-82 -161 -80 -1 1 -20 79 -43 172 -23 94 -45 180 -48 193 -4 12 -4 22 -2 22 3
0 42 -46 86 -102z m282 -129 l19 -36 -56 -17 c-31 -8 -57 -15 -58 -13 -1 1
-16 26 -33 55 -40 65 -40 78 -2 32 l29 -35 -8 30 c-5 17 -23 66 -39 110 l-31
80 80 -85 c44 -47 89 -101 99 -121z m54 -92 c49 -83 89 -163 121 -243 38 -95
47 -142 14 -79 -28 55 -94 112 -153 131 -59 20 -191 15 -248 -10 -21 -9 -40
-16 -42 -16 -4 0 -36 95 -36 107 0 2 5 1 10 -2 6 -3 10 0 10 8 0 17 73 57 184
103 102 42 116 42 140 1z m2364 -539 l25 -23 -6 23 c-5 20 -1 22 31 22 23 0
44 -8 60 -22 l24 -23 -6 23 c-6 19 -4 22 18 22 15 0 34 -9 43 -20 20 -24 38
-26 29 -5 -8 21 17 19 47 -5 27 -22 42 -26 32 -10 -3 6 3 10 15 10 22 0 70
-41 70 -60 0 -5 5 -10 10 -10 7 0 7 6 0 19 -15 28 -13 30 18 22 15 -4 38 -23
51 -42 18 -26 22 -29 18 -11 -8 33 0 27 23 -19 24 -45 37 -48 20 -4 -6 15 -9
29 -7 32 2 2 24 -6 48 -18 32 -16 49 -33 63 -62 11 -23 21 -36 23 -30 3 7 -1
22 -7 35 -8 16 -2 12 19 -11 17 -19 34 -32 37 -28 10 10 130 -100 194 -178
220 -270 323 -541 321 -850 -1 -112 -3 -149 -11 -175 -1 -3 -5 4 -10 15 -5 11
-9 66 -9 121 -2 186 -83 549 -113 502 -12 -20 -9 -48 5 -45 8 1 11 -10 9 -36
-2 -24 1 -36 7 -33 5 4 13 -14 18 -41 10 -58 10 -309 0 -319 -4 -4 -62 47
-130 113 -67 66 -136 127 -152 135 -44 22 -86 31 -83 17 2 -6 -3 -14 -11 -17
-8 -3 -11 0 -7 7 4 6 2 19 -3 28 -9 15 -11 11 -9 -17 1 -24 -6 -46 -21 -67
-20 -27 -23 -40 -19 -92 3 -50 10 -68 37 -101 23 -29 32 -49 28 -66 -2 -13 0
-24 4 -24 5 0 9 10 9 22 0 21 2 21 32 -9 28 -29 33 -40 36 -99 3 -39 8 -61 13
-53 4 7 5 26 2 43 -4 21 -3 27 5 22 7 -4 12 -19 12 -33 0 -15 3 -23 7 -19 13
12 44 -87 50 -156 7 -83 -6 -88 -37 -16 -17 39 -54 84 -154 183 -72 72 -162
166 -201 208 -70 77 -70 77 -121 77 -61 0 -94 -22 -124 -81 -33 -64 -21 -134
31 -188 30 -31 91 -128 124 -200 22 -45 24 -59 16 -84 -10 -26 -9 -28 6 -16
14 12 15 11 8 -10 -5 -16 -4 -21 3 -17 15 9 24 -45 20 -116 l-3 -57 -104 91
c-78 69 -100 93 -90 100 11 8 11 9 -1 5 -9 -3 -51 31 -106 84 -50 49 -100 89
-110 89 -14 0 -12 -4 10 -15 16 -8 77 -64 135 -123 58 -59 151 -150 207 -202
55 -52 144 -147 196 -210 96 -117 214 -238 263 -270 41 -27 52 -50 60 -123 4
-37 11 -69 15 -72 13 -8 -1 -88 -18 -107 -19 -23 -4 -23 20 -1 18 16 18 16 12
0 -4 -10 -1 -17 6 -17 9 0 10 -3 1 -14 -9 -10 -8 -15 2 -19 31 -12 50 -434 23
-522 l-12 -40 -63 -3 c-64 -3 -157 17 -198 44 -20 12 -23 12 -32 -4 -7 -13 -6
-23 1 -30 27 -27 -11 -10 -46 21 -33 28 -40 43 -60 126 -13 52 -21 103 -19
112 3 9 -5 53 -16 98 -26 102 -26 125 1 164 15 21 18 32 10 35 -9 3 -8 11 3
33 l16 29 -33 0 c-30 -1 -81 -16 -166 -51 -32 -13 -35 -13 -55 13 -21 25 -25
26 -68 17 -26 -6 -71 -9 -100 -7 -53 3 -53 3 -86 58 -17 30 -35 74 -39 97 -6
42 -6 43 30 58 20 8 36 21 36 28 0 7 -14 30 -32 51 -23 28 -32 50 -33 77 -1
44 -44 106 -80 115 -25 6 -58 -7 -92 -39 -34 -31 -28 -1 6 34 34 33 92 39 140
15 33 -18 76 -72 97 -124 9 -20 31 -72 51 -114 32 -69 37 -75 51 -62 9 9 24
13 36 10 12 -3 64 -9 116 -12 107 -7 128 -17 168 -76 16 -24 28 -36 30 -27 2
10 18 14 61 14 53 0 65 -5 131 -48 39 -27 73 -47 75 -45 2 2 -3 33 -12 69 -17
77 -61 140 -92 132 -21 -5 -122 95 -260 260 -45 53 -87 95 -92 91 -6 -3 -9 0
-7 8 4 19 -71 116 -96 124 -65 21 -232 152 -289 226 -42 57 -52 86 -43 125 9
32 61 83 87 83 10 0 19 5 19 11 0 12 -35 4 -68 -18 -54 -33 -77 -121 -52 -189
6 -15 41 -59 78 -98 92 -98 125 -166 129 -270 3 -61 0 -86 -11 -100 -20 -25
-46 -13 -47 21 0 15 -3 22 -6 16 -2 -7 -9 -13 -15 -13 -6 0 -8 6 -5 14 4 9 -2
14 -16 14 -12 0 -43 4 -68 7 -63 10 -99 -11 -150 -86 l-41 -61 -51 7 c-71 9
-119 22 -175 47 -26 12 -49 22 -52 23 -3 0 -23 7 -44 14 l-39 14 24 13 c23 13
22 13 -19 14 -48 0 -118 42 -148 88 -18 27 -19 25 26 40 l35 12 -42 -4 c-44
-4 -83 14 -83 40 0 8 -9 14 -20 14 -11 0 -20 7 -20 15 0 8 -11 22 -24 30 -25
17 -77 122 -80 161 0 13 -4 24 -7 24 -4 0 -15 30 -25 68 -31 118 -35 123 -100
143 -66 21 -100 24 -109 9 -4 -7 -14 -6 -28 2 -12 6 -24 9 -27 7 -3 -2 -10 12
-16 31 -10 29 -9 36 2 38 18 4 18 18 -1 26 -10 3 -15 19 -15 47 0 36 2 40 15
29 9 -7 19 -10 23 -6 4 4 -3 16 -15 26 -25 20 -32 75 -10 83 9 4 9 7 -1 15
-17 11 -5 137 15 157 7 8 9 16 4 19 -20 13 36 189 101 320 26 51 32 57 54 53
29 -5 32 6 5 19 -17 8 -14 16 35 91 38 60 58 81 69 77 8 -3 15 -1 15 5 0 6 -5
11 -10 11 -6 0 2 16 17 35 21 26 33 33 48 28 17 -5 18 -3 8 9 -10 12 -6 21 25
51 36 35 39 36 60 21 12 -8 22 -11 22 -5 0 5 -8 14 -17 20 -16 8 -15 11 7 30
17 14 33 19 49 15 21 -4 23 -3 12 9 -10 12 -7 19 18 36 16 12 39 21 51 21 11
0 19 4 15 9 -10 17 52 52 82 46 15 -3 22 -2 16 1 -19 9 -16 22 7 29 12 4 28 1
36 -6 8 -6 17 -9 21 -5 4 3 -2 12 -12 20 -17 12 -16 13 9 20 17 4 34 2 42 -5
9 -7 14 -8 14 -1 0 6 -5 14 -12 18 -7 5 -3 10 12 16 14 5 27 5 34 -2 15 -15
30 -12 17 4 -9 11 -5 16 20 25 24 8 36 8 45 0 11 -9 14 -8 14 4 0 18 49 32 63
18 15 -15 27 -13 21 3 -8 20 71 33 93 14 15 -11 16 -11 10 5 -8 22 25 24 47 2
8 -8 18 -15 22 -15 5 0 3 5 -4 12 -34 34 19 39 56 6z m-598 -122 c0 -2 -22
-18 -50 -35 -127 -78 -354 -296 -435 -417 -50 -75 -58 -85 -47 -54 14 36 110
201 131 225 50 56 13 60 -45 4 -26 -24 -33 -28 -25 -12 6 12 11 29 11 39 0 13
-3 14 -15 4 -12 -10 -15 -10 -15 1 0 7 -11 3 -27 -12 -15 -13 -5 1 23 32 48
54 140 141 194 184 14 11 7 0 -15 -23 -27 -30 -34 -41 -20 -36 15 5 11 -3 -14
-29 -43 -46 -35 -47 27 -3 27 18 64 41 83 50 l34 17 -27 -21 c-25 -19 -68 -79
-68 -94 0 -3 30 16 68 43 53 40 219 141 230 141 1 0 2 -2 2 -4z m1341 -901
c-17 -20 -31 -43 -31 -51 0 -39 83 -124 120 -124 8 1 1 7 -15 14 -43 18 -85
71 -85 106 0 27 47 80 71 80 6 0 35 -24 66 -52 31 -29 53 -46 48 -38 -5 8 43
-34 106 -94 105 -100 117 -116 145 -185 17 -42 54 -125 83 -186 l52 -110 -6
-140 c-5 -102 -2 -168 9 -246 8 -59 16 -111 18 -116 2 -5 -9 -24 -24 -42 -16
-18 -28 -28 -28 -22 0 6 -4 11 -10 11 -5 0 -11 -30 -12 -67 l-2 -68 -3 64 c-3
55 -9 70 -34 99 -17 19 -35 45 -40 59 -5 13 -9 106 -9 207 0 219 -12 251 -63
176 -17 -24 -17 -24 -17 -2 0 12 -11 46 -26 75 -35 72 -84 199 -84 218 0 8
-25 37 -54 64 -50 44 -53 50 -38 62 9 7 13 12 7 11 -5 -2 -10 0 -10 3 0 4 -20
23 -45 43 -88 73 -146 159 -136 201 6 23 58 85 71 85 4 0 -7 -16 -24 -35z
m-4937 -73 c0 -11 2 -21 5 -20 22 2 30 -4 24 -19 -5 -12 -2 -15 10 -10 9 3 17
2 17 -3 0 -6 6 -10 14 -10 8 0 24 -9 37 -20 21 -17 22 -21 9 -30 -13 -8 -12
-10 3 -10 14 0 16 -4 8 -17 -5 -10 -10 -50 -13 -90 -3 -63 -1 -71 14 -70 9 1
16 4 15 7 -4 11 63 117 89 140 l27 25 -27 -40 c-37 -57 -80 -142 -101 -200
-10 -27 -22 -54 -26 -60 -4 -5 -12 -36 -19 -67 -6 -32 -14 -58 -16 -58 -6 0 4
86 18 158 9 48 7 59 -15 106 -27 56 -86 116 -116 116 -29 0 -66 -35 -110 -105
-91 -144 -130 -278 -132 -455 -2 -113 -2 -114 -16 -70 -30 97 -26 280 8 388
13 39 4 56 -10 21 -5 -13 -20 -51 -34 -84 -13 -33 -32 -80 -41 -105 -9 -25
-25 -56 -35 -70 -17 -21 -21 -22 -35 -10 -24 19 -34 4 -52 -81 -12 -53 -15
-105 -11 -184 6 -129 -6 -114 -28 36 -16 107 -18 139 -5 99 6 -19 8 -13 9 30
4 158 40 295 116 444 96 188 205 292 348 331 62 16 72 15 71 -13z m1805 -362
c9 -70 33 -181 57 -261 3 -12 -5 -20 -27 -28 -43 -15 -199 -40 -229 -37 -14 2
-28 -2 -32 -8 -5 -7 -8 -4 -8 8 0 12 5 16 15 12 9 -3 28 6 46 24 24 22 31 39
32 69 1 23 8 43 15 46 9 3 12 -2 8 -18 -3 -12 -3 -16 0 -9 3 6 9 10 13 7 5 -2
7 7 5 21 -2 20 1 24 14 20 13 -5 13 -3 -2 9 -18 13 -23 12 -55 -13 -73 -55
-163 -112 -227 -143 -52 -24 -86 -33 -163 -39 -114 -10 -127 -15 -209 -73
l-63 -45 36 -6 c30 -6 48 -1 108 32 92 50 101 52 397 67 99 6 256 30 326 50
18 6 23 -1 38 -42 9 -26 25 -69 35 -95 15 -38 17 -49 6 -58 -7 -6 -17 -9 -21
-8 -12 4 -55 -27 -49 -34 5 -5 -7 -17 -77 -73 -9 -8 -41 -26 -70 -40 -90 -44
-294 -164 -345 -202 -24 -17 -33 -32 -33 -52 0 -25 -6 -31 -56 -50 -31 -11
-64 -21 -74 -21 -10 0 -21 -4 -24 -9 -3 -5 -29 -12 -58 -15 -45 -6 -56 -11
-70 -36 -20 -36 -68 -61 -133 -72 -27 -4 -84 -14 -125 -22 -67 -13 -76 -12
-87 2 -7 9 -13 24 -13 34 0 10 -4 18 -10 18 -5 0 -10 -4 -10 -10 0 -15 -17
-12 -23 4 -8 20 33 162 72 256 38 90 72 149 113 195 18 21 25 35 17 35 -48 -1
-177 -237 -216 -395 -8 -33 -16 -62 -19 -64 -2 -2 -11 13 -19 33 -13 32 -18
36 -31 25 -22 -18 -32 -3 -65 97 -25 77 -27 90 -14 104 8 8 26 41 40 73 32 68
30 75 -51 242 -66 136 -78 190 -71 319 5 108 20 166 43 166 8 0 14 -3 14 -7 0
-5 52 -62 115 -128 79 -84 124 -140 147 -185 25 -49 33 -60 36 -44 2 12 -8 45
-22 74 -15 32 -19 47 -10 39 11 -9 18 -9 26 -1 7 7 -3 32 -38 88 -39 63 -49
87 -52 134 l-4 58 65 53 c36 30 79 62 96 72 40 23 41 10 7 -68 -19 -41 -22
-55 -11 -55 40 0 92 106 101 209 l7 74 18 -34 c10 -19 21 -52 25 -74 19 -114
125 -226 224 -237 25 -3 39 -4 32 -1 -6 3 -9 10 -6 15 5 7 2 8 -7 3 -12 -8
-12 -6 0 8 7 9 17 14 23 11 5 -3 16 0 25 8 12 9 15 9 9 1 -4 -8 -1 -13 8 -13
9 0 16 5 16 11 0 6 7 9 14 6 11 -4 13 -1 9 10 -5 12 -2 15 9 10 10 -3 19 0 22
9 3 9 10 13 15 10 5 -3 12 1 15 10 3 8 2 12 -4 9 -5 -3 -7 0 -4 8 3 8 15 17
26 20 13 4 17 10 12 19 -6 10 -3 9 10 -1 15 -13 20 -11 47 18 16 18 29 38 29
44 0 7 4 6 9 -3 6 -8 7 -19 5 -25 -3 -5 6 3 20 19 14 17 23 33 21 37 -3 3 5
15 17 25 12 11 18 13 14 7 -14 -25 13 -12 36 16 13 16 30 31 38 33 8 2 21 9
28 16 7 6 20 12 28 12 8 0 14 8 14 18 0 14 2 15 10 2 8 -13 10 -12 11 5 1 11
2 26 2 32 -1 7 3 10 8 7 5 -3 10 1 11 8 1 7 5 -57 9 -142 4 -85 12 -193 18
-240z m-1345 258 c-102 -107 -136 -171 -159 -302 -31 -179 -37 -186 -53 -61
-10 77 -9 91 8 135 11 28 31 67 44 89 37 58 137 162 149 154 5 -3 7 -1 3 5 -3
6 -2 13 4 17 5 3 10 0 10 -7 0 -8 6 -7 17 5 10 9 20 17 22 17 3 0 -17 -24 -45
-52z m4176 27 c16 -8 72 -63 124 -123 52 -59 132 -143 178 -188 71 -69 90 -96
135 -185 28 -57 81 -144 116 -194 36 -49 68 -101 72 -115 13 -44 62 -133 109
-199 48 -68 58 -109 31 -131 -8 -7 -15 -25 -15 -40 0 -15 -15 -60 -33 -101
-19 -41 -54 -120 -78 -176 -24 -57 -47 -103 -51 -103 -17 0 -48 135 -48 209 0
48 -6 87 -15 105 -14 26 -14 31 1 47 18 20 33 17 88 -23 21 -15 42 -28 47 -28
10 0 -26 91 -68 168 -19 37 -69 117 -109 177 -106 158 -109 162 -114 125 -4
-27 0 -41 10 -35 6 3 7 -1 4 -10 -5 -12 -28 16 -81 97 -40 62 -80 121 -88 131
-8 9 -15 20 -15 23 0 4 -14 22 -31 41 -16 19 -27 38 -24 41 3 4 10 0 15 -8 11
-17 13 -9 4 14 -5 13 -10 13 -27 4 -19 -10 -20 -9 -10 4 7 8 10 18 6 21 -3 4
-1 7 6 7 20 0 11 12 -74 105 -44 48 -79 93 -77 100 1 7 -8 21 -20 32 -41 33
-78 84 -78 108 0 13 15 38 37 59 21 20 32 36 26 36 -24 0 -83 -70 -83 -98 0
-21 -2 -24 -10 -12 -18 28 -11 66 18 92 44 41 75 47 122 23z m861 -116 c7 -14
9 -41 4 -78 -4 -31 -7 -89 -6 -128 1 -47 -2 -73 -9 -73 -19 0 -70 122 -65 155
2 17 7 56 10 88 6 52 9 57 30 57 15 0 29 -9 36 -21z m-6118 -576 c-12 -30 -14
-69 -12 -195 4 -151 3 -157 -13 -135 -10 12 -18 27 -18 33 0 16 -58 94 -70 94
-6 0 -10 -7 -10 -15 0 -7 -7 -18 -16 -23 -12 -7 -14 -14 -6 -28 5 -10 12 -41
15 -69 4 -32 3 -41 -2 -25 -4 14 -18 44 -29 67 -24 45 -23 54 15 126 14 27 32
76 41 110 15 54 22 64 52 79 19 10 43 18 52 18 16 0 16 -3 1 -37z m-201 -195
c-47 -68 -49 -84 -10 -108 l33 -20 -37 0 c-28 0 -38 -5 -43 -19 -3 -12 -12
-18 -20 -15 -8 4 -36 -16 -67 -46 -57 -55 -127 -109 -577 -440 -420 -309 -401
-296 -411 -280 -11 18 -43 -34 -72 -120 -18 -51 -23 -87 -23 -169 l0 -103 -24
73 c-30 95 -30 165 0 259 l25 75 229 163 c127 90 293 205 370 257 256 172 453
334 568 468 66 77 107 94 59 25z m1096 -83 c32 -27 56 -93 50 -141 -3 -27 -7
-29 -53 -34 -63 -6 -80 -17 -98 -59 l-15 -35 -23 45 c-28 53 -30 130 -6 176
40 75 92 92 145 48z m1508 -22 c-8 -33 -7 -32 -152 -108 -148 -78 -180 -111
-198 -200 -8 -39 -17 -149 -20 -245 -3 -96 -11 -265 -18 -376 -26 -436 39
-886 172 -1187 40 -90 132 -239 179 -291 l26 -29 -30 21 c-50 35 -142 134
-169 183 -42 78 -134 313 -161 412 -42 157 -66 385 -64 602 1 105 6 242 10
305 6 91 15 425 19 688 0 28 7 37 55 67 85 55 307 165 318 158 6 -3 7 -1 3 5
-3 6 2 15 11 21 23 13 26 8 19 -26z m2391 -75 c23 -26 43 -61 43 -78 0 -6 -21
-24 -47 -40 -45 -29 -47 -29 -66 -12 -25 22 -47 66 -47 92 0 21 52 60 81 60 8
0 25 -10 36 -22z m-2863 -240 c12 -16 16 -18 12 -5 -3 9 -1 17 4 17 6 0 10
-27 10 -59 l0 -59 -37 -13 c-21 -7 -46 -12 -57 -11 -13 1 -17 -4 -13 -19 3
-11 0 -19 -8 -19 -7 0 -15 10 -18 22 -8 28 -21 16 -22 -20 0 -22 -7 -29 -35
-38 -33 -11 -36 -10 -43 12 -10 28 -27 22 -27 -9 0 -18 -2 -19 -10 -7 -10 15
-11 13 -14 -25 -1 -26 -36 -32 -53 -9 -12 17 -13 17 -14 -2 0 -17 -1 -16 -9 4
-14 33 -23 27 -16 -10 8 -38 -18 -75 -41 -57 -10 9 -13 8 -13 -5 0 -9 -8 -16
-17 -17 -11 0 -13 -3 -5 -6 17 -7 15 -40 -3 -47 -21 -8 -19 -33 4 -48 18 -11
18 -12 -1 -45 -16 -27 -18 -36 -8 -48 12 -14 9 -18 -7 -12 -5 1 -7 6 -5 10 1
4 -6 11 -15 14 -23 9 -44 29 -37 36 3 3 1 8 -5 12 -6 3 -11 1 -11 -5 0 -6 -5
-8 -10 -5 -6 4 -8 9 -6 13 2 4 -2 15 -9 25 -9 12 -15 14 -20 7 -4 -6 -1 -19 7
-28 12 -15 11 -16 -5 -3 -11 8 -15 21 -12 32 5 14 1 19 -12 20 -10 0 -13 3 -5
6 6 2 9 9 6 14 -4 6 -11 6 -19 -1 -16 -14 -29 2 -34 41 0 5 -5 8 -10 5 -8 -5
-36 42 -33 56 1 4 -7 12 -18 18 -11 6 -20 16 -20 23 0 7 -9 30 -20 52 -11 22
-20 48 -19 60 0 12 3 15 6 6 3 -7 14 -22 24 -32 12 -12 19 -33 19 -60 0 -56
16 -41 24 23 16 122 24 125 61 23 l7 -20 8 20 c6 13 9 15 9 5 1 -12 3 -13 10
-1 6 10 11 6 19 -15 l10 -29 1 28 c1 20 8 30 27 37 40 16 47 13 40 -17 -6 -28
-6 -28 24 6 16 19 32 32 35 29 3 -3 -1 -11 -10 -18 -8 -7 -15 -18 -15 -24 0
-6 16 6 35 27 36 39 59 49 48 20 -5 -14 -1 -13 19 5 26 24 53 29 64 11 3 -6
17 7 31 31 29 48 43 48 18 0 -9 -18 -14 -34 -11 -37 2 -3 12 9 20 25 20 38 41
54 31 23 -11 -34 5 -24 21 14 13 32 34 48 34 25 0 -5 6 -7 13 -4 9 3 19 -10
30 -36 8 -22 20 -40 26 -40 6 0 4 14 -5 35 -17 42 -19 83 -2 48 15 -32 25 -29
20 6 -4 28 1 33 39 40 4 0 14 -9 23 -21z m33 -285 c-6 -149 -33 -350 -59 -437
l-12 -39 -93 6 c-51 3 -91 2 -88 -2 2 -5 -7 -6 -20 -3 -15 2 -25 0 -25 -7 0
-6 5 -11 12 -11 6 0 8 -3 5 -6 -12 -13 -76 41 -91 76 -24 58 -28 78 -16 100 9
17 9 24 -3 33 -7 7 -23 26 -35 43 l-21 30 35 28 34 27 -30 25 c-22 19 -27 29
-20 42 5 9 11 25 14 34 3 10 18 20 33 24 15 4 58 27 95 51 37 24 84 47 105 50
21 3 47 13 58 23 25 22 107 70 119 70 5 0 6 -66 3 -157z m-970 114 l22 -12
-20 -33 c-12 -17 -25 -32 -31 -32 -5 0 -7 -4 -3 -9 3 -6 26 -13 51 -17 38 -5
44 -9 38 -26 -3 -12 0 -24 10 -31 8 -7 18 -31 22 -53 l6 -41 -48 -17 c-71 -24
-145 -30 -166 -14 -33 24 5 177 65 265 25 37 24 37 54 20z m-567 -13 c0 -4
-10 -22 -22 -42 l-21 -35 32 -26 c30 -25 31 -28 16 -41 -31 -26 -35 -46 -17
-81 14 -27 17 -58 16 -159 -2 -130 -28 -358 -43 -373 -5 -5 -35 -3 -69 4 -73
15 -125 3 -166 -38 -45 -45 -56 -85 -56 -208 0 -95 -3 -116 -18 -135 l-19 -23
-43 42 c-37 36 -49 41 -81 39 -24 -1 -45 4 -56 15 -50 44 -261 48 -344 7 -24
-12 -59 -33 -76 -46 l-33 -25 -77 39 -78 39 1 59 c1 32 3 73 4 91 2 20 -5 41
-19 58 -25 33 -26 52 -4 122 14 45 15 58 4 75 -12 19 -8 25 36 70 163 167 537
415 744 491 35 14 120 36 189 50 177 37 200 40 200 31z m314 -54 c29 -35 43
-107 30 -158 -10 -41 -29 -52 -39 -23 -10 32 -37 42 -74 28 -40 -15 -51 -2
-51 61 0 106 77 159 134 92z m4610 -308 c36 -136 36 -141 -13 -135 -48 7 -75
-17 -85 -73 -16 -85 -76 -102 -187 -54 -65 29 -80 32 -140 28 -89 -7 -161 -46
-206 -112 -18 -27 -30 -52 -28 -57 3 -5 0 -21 -8 -36 -10 -20 -12 -48 -7 -103
7 -85 5 -97 -11 -51 -6 17 -20 36 -30 41 -10 6 -43 48 -72 93 -156 239 -198
309 -194 321 4 9 41 15 124 19 135 7 330 42 354 63 8 8 34 14 57 14 47 0 244
62 342 108 36 17 68 31 71 31 3 1 18 -43 33 -97z m-4062 -29 c9 -10 23 -35 31
-55 9 -21 22 -38 30 -38 17 0 61 -55 79 -97 6 -15 14 -53 17 -83 5 -47 9 -55
29 -58 18 -3 21 -8 17 -28 -16 -77 -18 -71 24 -78 30 -5 48 -16 78 -51 21 -25
47 -60 57 -79 l18 -33 -39 -55 c-22 -31 -45 -75 -53 -99 -8 -24 -19 -47 -25
-51 -5 -4 -56 -8 -111 -8 -115 0 -206 22 -264 65 -35 26 -50 31 -50 17 0 -12
65 -47 130 -71 78 -28 147 -34 289 -22 103 8 133 15 188 41 36 16 69 30 74 30
4 0 11 -17 14 -37 27 -174 97 -385 174 -528 36 -68 37 -71 25 -115 -15 -52
-34 -280 -25 -295 8 -14 13 -35 15 -68 2 -16 9 -33 17 -38 11 -7 11 -9 -3 -9
-12 0 -18 -8 -18 -25 0 -14 -4 -25 -10 -25 -5 0 -7 -6 -4 -14 3 -8 0 -17 -5
-21 -6 -3 -8 -12 -4 -18 4 -7 -2 -5 -12 3 -17 14 -18 14 -6 -9 8 -15 9 -21 2
-17 -6 4 -11 3 -11 -3 0 -5 -8 -17 -17 -27 -10 -10 -18 -22 -18 -28 -1 -6 -7
-10 -14 -8 -7 1 -10 -2 -6 -8 3 -5 0 -10 -7 -11 -7 -1 -2 -5 12 -9 24 -8 24
-8 3 -9 -13 -1 -46 -16 -75 -34 l-53 -34 -39 29 c-21 15 -47 28 -56 28 -19 0
-30 36 -30 97 0 20 -4 32 -10 28 -5 -3 -10 2 -10 12 -1 22 -70 -129 -99 -217
-12 -36 -30 -75 -39 -88 l-18 -23 -149 15 c-83 9 -202 18 -265 21 -63 3 -120
11 -127 16 -6 6 -22 41 -34 77 -12 37 -30 80 -40 95 l-17 29 -7 -34 c-4 -18
-12 -39 -18 -46 -5 -7 -7 -15 -4 -18 9 -9 -14 -64 -27 -64 -7 0 -39 9 -72 19
-160 52 -262 81 -294 84 -30 3 -39 10 -68 58 -45 74 -82 197 -69 227 12 26 35
28 92 7 63 -23 116 -19 161 11 21 15 44 34 51 43 18 23 46 84 46 99 0 6 4 12
7 12 4 0 18 28 31 63 18 47 24 83 24 149 0 49 3 88 7 88 4 0 18 -4 31 -9 33
-13 151 -23 171 -15 35 14 12 21 -49 16 -48 -3 -77 0 -111 13 l-46 17 7 42
c28 168 32 264 10 272 -11 5 -12 9 -2 19 7 7 15 11 20 8 13 -8 7 15 -8 31 -18
18 -20 30 -2 20 9 -6 9 -4 1 7 -15 19 -10 65 6 61 10 -2 11 0 2 11 -7 8 -9 17
-5 20 3 4 0 7 -7 7 -9 0 -8 5 5 13 12 10 14 16 7 21 -7 4 -12 2 -12 -4 0 -6
-4 -8 -10 -5 -6 4 -2 14 9 26 16 18 22 19 42 9 32 -18 118 -13 212 11 139 35
103 40 -47 6 -54 -12 -80 -14 -118 -6 -50 11 -66 23 -47 35 8 5 9 3 4 -6 -5
-8 -4 -11 3 -7 5 4 7 17 4 30 -5 17 -7 18 -10 5 -2 -9 -10 -19 -18 -22 -11 -4
-11 -1 2 19 9 14 25 25 35 25 11 0 19 5 19 11 0 5 -6 7 -12 3 -8 -4 -10 -3 -5
2 5 5 14 9 20 9 7 0 12 9 12 20 0 11 5 19 11 18 8 -1 10 6 6 19 -3 14 -1 19 6
14 8 -5 10 -2 6 8 -3 9 -1 16 6 16 6 0 8 5 3 13 -12 19 -12 38 0 30 6 -4 8 0
4 10 -3 9 -1 19 5 23 7 5 8 2 3 -7 -5 -8 -4 -11 1 -6 5 5 9 77 9 160 1 143 2
154 24 184 17 22 39 35 78 46 30 9 60 14 68 11 7 -3 35 10 62 28 26 18 57 38
68 45 31 18 89 16 107 -4z m2143 -237 c104 -133 108 -140 68 -129 -48 14 -204
7 -273 -11 -36 -9 -91 -20 -123 -23 -50 -5 -57 -4 -51 10 3 9 21 21 41 28 36
12 48 30 58 90 6 43 61 109 107 132 66 33 76 27 173 -97z m1984 54 c18 -28 45
-57 60 -65 16 -8 36 -27 45 -42 l17 -28 -20 23 c-39 45 -43 17 -5 -34 l26 -34
-31 6 c-26 5 -31 3 -32 -12 0 -11 -17 -55 -38 -99 -21 -44 -36 -82 -34 -85 9
-9 46 44 75 108 26 58 41 79 36 50 -2 -7 3 -12 10 -10 6 1 12 -3 12 -9 0 -6
-9 -8 -20 -4 -14 5 -20 2 -20 -10 0 -9 4 -14 8 -11 4 2 8 -4 8 -15 0 -18 -2
-18 -12 -4 -10 13 -12 12 -16 -10 -3 -14 -2 -25 2 -25 14 0 21 -33 9 -44 -9
-8 -10 -7 -4 3 6 10 4 12 -5 6 -10 -6 -10 -10 3 -19 18 -14 4 -48 -17 -40 -8
3 -17 1 -21 -5 -3 -6 4 -15 17 -20 17 -7 18 -10 6 -10 -11 -1 -15 -6 -12 -16
4 -8 1 -15 -5 -15 -18 0 -12 -38 7 -44 9 -3 2 -4 -15 -2 -18 1 -33 -1 -33 -6
0 -4 6 -8 13 -8 7 0 8 -3 2 -8 -13 -9 -19 -35 -6 -28 5 4 12 2 16 -4 3 -5 -1
-10 -10 -10 -9 0 -13 -4 -10 -10 3 -5 -1 -10 -9 -10 -9 0 -16 -5 -16 -11 0 -6
-9 -9 -20 -6 -11 3 -17 1 -14 -4 3 -5 21 -7 39 -3 30 5 33 4 31 -19 0 -15 -6
-23 -13 -20 -7 3 -10 9 -7 14 9 15 -3 10 -17 -8 -12 -14 -12 -16 0 -8 11 6 13
4 8 -9 -4 -10 -3 -15 3 -11 6 3 10 -3 10 -15 0 -12 -4 -18 -10 -15 -6 4 -7 -1
-3 -11 5 -14 2 -16 -23 -11 -25 4 -26 4 -11 -8 15 -11 15 -14 2 -25 -12 -10
-15 -10 -16 1 0 8 -3 6 -8 -4 -4 -11 -7 11 -7 50 -1 50 -7 80 -24 113 -72 141
-177 198 -319 172 l-53 -10 79 82 c100 101 307 338 336 382 12 19 22 34 23 34
0 0 15 -23 33 -50z m-4735 -89 c14 -15 15 -26 6 -64 -11 -51 -30 -97 -40 -97
-3 0 -12 6 -18 12 -10 10 -17 10 -31 1 -16 -10 -20 -9 -25 10 -15 57 4 137 36
150 27 11 56 6 72 -12z m-2044 -191 c28 -48 65 -138 76 -182 3 -16 10 -28 14
-28 5 0 6 -10 2 -22 -4 -16 -2 -19 8 -13 10 6 12 4 7 -9 -4 -11 -3 -15 4 -11
6 4 16 -1 23 -11 13 -17 14 -16 21 5 5 17 11 20 28 15 66 -20 64 -17 70 -104
4 -52 12 -86 22 -96 8 -9 15 -20 15 -25 0 -6 5 -7 10 -4 6 4 9 3 8 -2 -4 -14
46 -93 60 -93 6 0 11 -5 10 -12 -2 -7 4 -12 12 -13 8 0 16 -10 18 -23 2 -12
12 -27 23 -33 11 -5 16 -15 13 -21 -5 -7 -1 -9 9 -5 12 5 17 1 17 -13 0 -11 6
-20 13 -20 8 0 7 -4 -3 -10 -13 -9 -7 -14 13 -11 24 4 -3 -14 -69 -46 -42 -20
-99 -57 -127 -82 -29 -25 -59 -50 -67 -57 -13 -11 -15 11 -15 184 -1 198 -10
277 -42 332 -14 24 -14 24 -8 -15 21 -151 25 -217 24 -447 0 -161 -4 -258 -10
-258 -5 0 -37 14 -70 31 -53 26 -60 33 -55 52 33 112 67 445 49 469 -22 29
-55 141 -48 165 9 38 17 22 36 -75 9 -48 17 -73 18 -56 2 54 -37 220 -99 429
-54 181 -76 269 -48 190 6 -16 23 -50 38 -75z m6096 -115 c8 -22 30 -55 47
-72 37 -39 73 -43 138 -14 93 41 245 36 269 -10 23 -41 3 -137 -37 -181 -9
-10 -30 -18 -47 -18 -53 0 -101 -18 -143 -55 -23 -19 -45 -35 -50 -35 -4 0 -1
5 7 10 9 6 11 10 3 10 -7 0 -10 6 -7 14 3 8 0 17 -6 21 -8 5 -8 11 0 20 7 9 6
16 -5 25 -16 13 -21 35 -6 26 5 -4 7 3 4 14 -3 11 -10 17 -16 13 -6 -4 -8 0
-4 10 4 10 4 30 1 46 -6 26 -11 30 -49 33 -27 2 -41 -1 -37 -7 3 -5 24 -37 47
-70 57 -83 58 -86 42 -79 -21 7 -133 -13 -169 -31 -31 -15 -64 -6 -37 10 8 6
10 4 4 -5 -6 -9 -4 -11 5 -5 10 6 10 10 -2 19 -8 6 -13 17 -11 24 3 6 0 12 -5
12 -6 0 -13 -6 -16 -12 -3 -9 -9 -7 -21 7 -15 18 -13 21 24 43 29 17 45 36 57
69 17 43 17 51 1 132 -15 78 -22 160 -17 186 1 6 6 -17 11 -50 5 -33 16 -78
25 -100z m-960 -135 c21 -30 62 -90 91 -133 l53 -78 -67 3 -68 3 -22 45 c-16
31 -25 72 -29 135 -4 50 -5 88 -2 85 3 -3 23 -30 44 -60z m1411 -252 c-55 -33
-81 -92 -85 -200 -2 -49 1 -102 7 -118 5 -17 6 -28 1 -25 -11 7 -30 95 -30
138 0 24 -7 36 -28 47 -25 15 -31 14 -76 -2 -79 -30 -75 -15 10 36 43 26 99
67 124 91 25 24 54 45 65 48 44 10 48 5 12 -15z m150 -51 c-7 -20 18 -38 34
-24 11 10 11 9 0 -5 -7 -10 -18 -15 -24 -11 -17 10 -47 11 -53 1 -3 -4 1 -8 9
-8 20 0 28 -37 11 -51 -8 -6 -21 -9 -29 -5 -8 3 -15 1 -15 -4 0 -5 7 -10 15
-12 19 -4 -82 -111 -126 -133 -28 -15 -28 -15 -35 21 -7 38 0 157 11 185 3 9
37 24 83 36 91 25 126 28 119 10z m-5333 -266 c20 -21 37 -63 65 -159 21 -75
32 -127 25 -121 -9 8 -8 -1 3 -30 18 -46 12 -71 -16 -71 -11 0 -31 -5 -45 -11
-33 -15 -53 0 -62 47 -8 43 12 68 64 83 l37 11 -34 -5 c-77 -11 -97 -48 -66
-121 13 -33 18 -36 42 -30 16 4 47 11 69 15 l42 7 -10 -27 c-8 -23 -16 -28
-63 -34 -32 -4 -62 -2 -73 4 -30 16 -54 87 -62 182 -9 95 -39 173 -65 163 -18
-7 -18 -7 -15 -105 2 -106 -14 -142 -74 -162 -28 -10 -72 -39 -107 -71 -45
-41 -73 -57 -107 -65 -26 -5 -50 -7 -54 -5 -4 3 -8 -1 -8 -9 0 -8 -7 -20 -15
-27 -8 -7 -15 -18 -15 -24 0 -6 10 1 21 17 11 15 28 27 36 27 43 0 98 28 157
81 51 45 76 60 118 69 30 7 63 11 73 9 32 -6 246 -448 248 -511 3 -74 -80
-132 -140 -98 -29 17 -41 37 -117 202 -30 64 -66 132 -80 150 -14 19 -30 52
-35 74 -8 33 -9 35 -10 11 -1 -16 -7 -34 -13 -41 -7 -8 -33 -39 -58 -70 -40
-50 -48 -55 -75 -51 -30 5 -31 5 -27 -36 l4 -42 -53 7 c-44 5 -50 4 -34 -6 11
-6 69 -14 130 -16 139 -6 159 -15 180 -84 20 -70 20 -73 -16 -73 -27 0 -35 -6
-51 -37 l-20 -38 -29 29 c-38 39 -105 63 -160 59 l-44 -3 -3 -97 c-3 -93 -2
-98 18 -98 13 0 26 -12 37 -35 9 -19 21 -35 25 -35 5 0 7 -4 4 -8 -9 -15 14
-83 26 -76 6 4 8 3 5 -3 -4 -6 5 -42 18 -82 30 -86 32 -106 8 -96 -39 16 -54
17 -68 5 -14 -11 -12 -15 13 -30 16 -10 36 -36 45 -59 22 -54 21 -63 -3 -26
-10 17 -40 46 -65 65 -35 28 -48 46 -61 88 -19 63 -113 266 -120 259 -3 -3 -1
-14 5 -25 13 -24 14 -42 3 -42 -10 0 -92 154 -148 278 -24 53 -44 87 -44 75 0
-13 -4 -23 -8 -23 -5 0 -9 32 -10 71 -4 133 -24 202 -130 451 -2 5 8 4 23 -2
31 -12 125 -13 143 -2 10 7 9 16 -3 45 -8 20 -15 56 -15 80 0 44 0 44 41 50
48 6 143 -16 179 -42 39 -28 52 -60 46 -115 -7 -69 -26 -92 -87 -107 -58 -15
-73 -32 -90 -104 -6 -27 -20 -81 -31 -119 -31 -111 -8 -105 51 11 86 171 121
216 186 232 104 25 264 105 290 145 8 12 23 65 34 117 28 134 44 171 89 197
54 31 102 29 136 -7z m591 -118 c-7 -70 -47 -109 -131 -129 -55 -12 -99 -11
-153 7 -43 14 -26 26 43 29 90 4 96 5 96 10 0 9 60 42 60 33 0 -4 5 0 11 10 8
13 14 15 29 7 16 -9 18 -8 13 6 -4 11 1 22 12 30 23 17 23 17 20 -3z m-875
-98 c29 -10 34 -17 32 -36 -5 -41 -35 -70 -117 -115 -91 -49 -94 -48 -136 31
l-24 44 39 40 c57 58 112 68 206 36z m2796 -353 c77 -50 113 -104 153 -226 33
-104 108 -256 177 -361 18 -27 14 -33 -8 -12 -8 6 -34 30 -59 52 -32 29 -37
32 -19 10 54 -64 65 -78 53 -71 -7 4 -13 2 -13 -3 0 -15 -30 -14 -31 2 0 6 -4
3 -9 -8 -8 -18 -9 -19 -9 -1 -1 14 -6 17 -25 12 -19 -5 -33 5 -78 52 -29 31
-78 92 -107 135 -60 87 -77 101 -35 30 147 -254 311 -365 586 -396 128 -14
218 -8 340 22 145 37 258 100 601 336 51 35 114 66 185 91 97 35 116 39 202
38 71 -1 111 -7 160 -24 175 -61 274 -127 324 -215 42 -77 42 -77 -24 -152
-96 -106 -122 -172 -100 -252 15 -56 76 -116 132 -131 24 -7 49 -17 56 -23 9
-7 66 -11 155 -10 l142 0 -80 -24 c-44 -13 -132 -39 -195 -58 -201 -60 -273
-77 -280 -65 -4 7 -31 2 -80 -15 -73 -25 -76 -25 -432 -25 -325 0 -369 2 -459
21 -145 30 -353 94 -381 118 -4 3 35 5 87 3 52 -2 95 0 95 5 0 4 -51 9 -114
10 -128 3 -165 12 -301 80 -111 55 -124 66 -54 47 182 -49 436 -64 649 -40 80
10 165 22 189 27 24 5 46 8 48 5 4 -4 -79 -32 -302 -100 l-50 -15 55 6 c30 3
74 12 98 20 24 8 58 15 77 16 18 1 31 5 28 9 -2 5 -2 8 1 8 2 0 12 3 22 7 13
5 15 3 10 -8 -6 -10 -4 -10 6 1 7 8 24 14 37 12 15 -2 30 3 37 12 23 32 245
109 355 125 86 12 173 5 226 -19 24 -10 41 -15 38 -10 -3 5 -31 18 -63 30 -49
19 -70 21 -152 17 -97 -6 -203 -26 -277 -54 -23 -8 -47 -13 -55 -10 -9 4 -7 6
5 6 9 1 17 6 17 11 0 6 3 9 8 9 17 -3 32 1 30 9 -5 13 40 52 46 39 2 -7 5 -1
5 12 1 16 5 21 16 17 8 -3 14 0 12 7 -1 7 4 11 12 9 8 -2 11 3 8 12 -4 9 1 17
14 21 11 4 16 11 13 17 -5 7 -1 9 9 5 11 -4 17 -1 17 9 0 8 4 13 9 9 6 -3 15
4 21 15 6 11 15 18 19 15 5 -3 11 2 15 10 3 8 12 12 21 9 10 -4 15 0 15 11 0
9 4 14 9 11 5 -4 11 -2 13 3 1 6 15 12 31 15 30 5 57 28 57 48 0 8 3 9 8 3 12
-17 32 -16 32 1 0 12 6 15 21 11 15 -4 19 -2 15 9 -3 8 -1 14 4 14 6 0 10 -6
11 -12 0 -10 2 -10 6 0 2 6 11 12 19 12 9 0 12 5 9 10 -3 6 1 10 10 10 10 0
13 -5 9 -12 -4 -7 -3 -8 4 -4 7 4 12 14 12 22 0 8 5 12 10 9 6 -3 10 -2 10 4
0 5 11 8 25 6 23 -2 30 6 25 30 -1 5 8 1 20 -10 16 -15 19 -15 15 -3 -5 11 2
19 22 26 57 19 -93 26 -208 8 -229 -34 -419 -121 -680 -312 -120 -88 -253
-161 -315 -174 -142 -30 -453 51 -664 171 -63 36 -93 42 -67 15 6 -8 16 -11
21 -8 5 3 6 0 2 -6 -4 -6 -14 -8 -23 -5 -11 5 -14 3 -9 -6 5 -7 17 -11 27 -8
10 3 18 2 17 -2 -2 -21 3 -31 15 -25 6 4 9 4 5 -1 -4 -4 -2 -15 5 -24 6 -8
-12 4 -40 28 -50 41 -68 62 -41 45 7 -4 8 -3 4 4 -4 6 -13 9 -20 6 -26 -10
-195 208 -293 379 -112 197 -220 327 -270 327 -10 0 -4 14 18 41 36 46 63 66
117 85 62 22 94 17 158 -24z m1155 -107 c5 4 6 -2 2 -12 -6 -16 -5 -16 10 -5
9 8 22 10 29 6 9 -6 9 -3 -1 9 -12 15 -12 17 3 11 9 -3 16 -11 16 -17 0 -6 7
-2 15 9 15 19 15 19 35 -5 16 -18 20 -20 20 -7 0 11 4 14 13 9 6 -4 20 -8 30
-9 9 -1 24 -2 33 -3 8 0 12 -5 9 -11 -4 -6 1 -7 11 -3 11 4 15 3 10 -5 -4 -7
2 -8 24 -2 36 10 39 6 34 -43 -6 -67 -50 -145 -126 -224 -69 -71 -165 -150
-173 -142 -2 2 -15 34 -28 70 -34 90 -68 141 -147 224 -56 58 -66 73 -59 90 9
19 9 19 6 -1 -3 -12 1 -21 8 -21 7 0 12 6 11 13 0 7 3 13 8 13 5 -1 13 5 18
13 6 9 7 6 3 -9 -4 -14 -2 -23 5 -23 6 0 8 5 4 12 -5 8 -2 9 11 4 14 -5 16 -4
6 7 -9 12 -7 14 11 13 16 -1 23 4 22 17 -2 13 1 15 11 7 10 -8 15 -8 20 0 5 8
11 7 23 -2 12 -10 14 -10 8 0 -4 7 -1 12 9 12 9 0 14 -4 11 -9 -4 -5 3 -7 13
-4 11 3 18 10 17 16 -2 7 -1 9 1 4 3 -4 9 -5 14 -2z m-3550 -11 c22 -27 149
-109 238 -153 285 -144 580 -204 998 -202 l241 1 31 -32 c18 -18 30 -39 29
-47 -7 -37 -151 -96 -292 -121 -210 -36 -523 15 -801 132 -163 68 -319 154
-245 135 32 -8 14 10 -58 56 -37 24 -82 59 -99 77 -44 45 -91 170 -64 170 5 0
15 -7 22 -16z m2117 -8 c54 -29 144 -136 202 -241 100 -182 188 -312 274 -403
53 -57 175 -158 251 -209 142 -95 433 -219 665 -284 l105 -29 -110 4 c-154 6
-254 38 -605 193 -92 40 -349 199 -486 300 -163 121 -568 523 -537 534 59 22
103 30 124 24 44 -13 127 -65 180 -113 47 -42 50 -43 28 -13 -28 38 -118 103
-184 131 l-45 19 21 36 c22 38 55 65 77 65 7 0 25 -6 40 -14z m-262 -158 c97
-106 171 -216 325 -486 104 -185 204 -321 328 -451 34 -35 60 -65 58 -67 -2
-2 -34 -1 -73 2 l-69 6 -69 71 c-86 88 -185 238 -278 422 -39 77 -74 142 -77
145 -3 3 -6 12 -6 20 0 8 -8 14 -17 14 -10 -1 -16 2 -13 6 8 13 -18 18 -48 9
-23 -7 -28 -5 -23 6 3 8 1 15 -4 15 -6 0 -10 -6 -10 -12 0 -10 -3 -9 -9 1 -6
9 -10 10 -12 2 -2 -6 -29 27 -59 75 -30 47 -72 111 -92 142 l-37 55 52 33 c29
19 62 34 73 34 13 0 38 -18 60 -42z m-222 -12 c23 -24 76 -102 119 -172 42
-71 96 -157 120 -190 114 -166 333 -431 438 -530 30 -28 62 -60 72 -72 l18
-20 -43 15 c-23 8 -49 20 -57 26 -12 10 -12 9 -2 -10 l12 -23 -85 0 -84 0 -40
48 c-88 106 -287 396 -389 567 -158 263 -173 285 -204 285 -10 0 -25 -13 -33
-29 -16 -30 -34 -41 -67 -41 -26 0 -25 6 22 69 103 139 135 151 203 77z
m-1679 -226 c161 -110 380 -199 604 -245 l66 -14 -90 5 c-49 3 -117 10 -150
15 -33 5 -71 8 -85 8 -24 -1 -23 -1 5 -10 87 -26 378 -38 570 -24 105 8 301
41 394 66 40 11 127 40 193 65 125 46 163 50 205 19 17 -13 17 -15 -5 -38 -34
-36 -127 -75 -245 -103 -56 -13 -140 -33 -187 -45 -47 -11 -91 -21 -97 -22 -7
0 -13 -4 -13 -9 0 -14 48 -9 198 22 80 17 147 29 149 26 2 -2 -50 -36 -117
-76 -110 -66 -128 -73 -198 -82 -106 -13 -626 -11 -630 2 -2 6 -43 10 -97 10
-78 0 -109 5 -187 31 -163 54 -340 160 -411 245 -16 19 -33 32 -38 28 -5 -3
-9 -2 -8 3 1 4 -5 25 -14 45 -36 80 -14 95 52 36 82 -74 304 -173 411 -183 39
-4 37 -3 -23 14 -37 10 -93 29 -125 42 -58 24 -212 108 -212 116 0 2 5 1 10
-2 13 -8 13 18 1 31 -11 10 -71 129 -71 139 0 4 24 -14 52 -40 29 -26 71 -60
93 -75z m158 96 c34 -13 85 -31 112 -41 28 -10 97 -38 155 -63 264 -113 530
-172 779 -172 46 0 82 -3 78 -6 -12 -13 -189 -44 -336 -59 -174 -18 -251 -12
-434 34 -213 54 -457 170 -532 252 -22 24 -23 28 -6 14 22 -18 24 -18 18 -2
-4 11 -3 16 3 12 21 -13 54 -14 62 -2 4 6 8 22 8 35 0 28 16 28 93 -2z m-398
-190 c8 -7 12 -16 9 -19 -3 -3 2 -4 11 -3 11 0 21 -13 31 -39 7 -22 14 -41 14
-42 0 -2 -11 -3 -25 -3 -14 0 -44 -9 -67 -21 -40 -21 -40 -21 -35 -67 6 -45 6
-46 -8 -21 -12 22 -55 166 -55 185 0 4 7 0 17 -7 15 -13 15 -12 3 11 -12 23
-12 24 3 11 10 -7 17 -10 17 -5 0 5 8 0 17 -11 15 -20 15 -20 10 2 -4 20 -3
21 14 12 16 -8 19 -6 19 11 0 24 6 25 25 6z m2646 -223 c171 -164 491 -319
854 -414 l150 -39 -295 4 c-304 4 -339 9 -404 51 -24 16 -69 92 -61 105 3 4
-2 13 -10 20 -8 7 -15 18 -15 24 0 7 -41 48 -91 91 -81 72 -171 167 -194 204
-13 22 14 3 66 -46z m314 -153 c137 -76 246 -130 342 -171 57 -23 101 -44 100
-46 -4 -3 -186 60 -274 96 -144 57 -359 183 -347 202 3 6 -2 19 -13 31 -10 11
16 -2 57 -29 41 -27 102 -65 135 -83z m-907 61 c18 -10 -39 -31 -218 -77 -135
-35 -142 -43 -17 -19 89 17 232 20 222 5 -9 -15 -153 -57 -240 -70 -44 -6 -91
-13 -105 -15 -51 -9 -227 -6 -300 5 -41 6 -91 10 -110 8 -54 -2 -394 53 -408
67 -14 14 12 15 64 1 142 -35 290 -49 470 -44 119 3 179 9 187 17 9 10 6 11
-18 5 -58 -15 -394 -8 -504 10 -58 9 -111 21 -120 25 -20 12 85 19 349 25 211
5 287 13 500 56 95 19 214 20 248 1z m3702 -171 c115 -12 212 -47 280 -101 43
-34 70 -66 70 -83 0 -3 -278 -6 -617 -5 l-618 0 99 29 c54 16 140 43 190 59
169 56 386 106 476 110 14 0 68 -4 120 -9z"/>
<path d="M4000 6378 c-27 -30 -26 -73 5 -103 30 -30 64 -32 99 -4 33 26 36 79
6 109 -27 27 -83 27 -110 -2z"/>
<path d="M3297 6183 c9 -33 16 -106 17 -169 0 -62 5 -110 9 -107 5 3 8 -21 7
-53 -1 -33 -1 -64 -1 -71 2 -24 112 -45 126 -24 3 6 -11 18 -31 27 -59 28 -63
43 -63 205 0 150 -7 187 -43 227 -33 34 -37 27 -21 -35z"/>
<path d="M2999 6180 c-34 -20 -31 -88 5 -112 21 -14 73 -8 89 10 22 25 21 75
-1 95 -20 19 -68 22 -93 7z"/>
<path d="M4232 5952 c-28 -3 -31 -6 -21 -18 10 -12 5 -23 -32 -60 -163 -169
-484 -285 -785 -284 -126 1 -242 19 -302 48 -23 11 -42 17 -42 13 0 -14 106
-113 155 -145 27 -18 80 -45 116 -59 137 -54 367 -44 531 24 145 59 308 200
366 314 33 67 64 163 54 168 -4 1 -22 1 -40 -1z m-43 -167 c-40 -82 -90 -139
-178 -204 -133 -99 -254 -140 -432 -148 -181 -8 -311 32 -424 132 l-50 44 50
-16 c39 -13 95 -16 250 -17 186 0 208 1 307 27 129 32 242 76 323 125 66 39
155 108 169 132 7 10 11 11 14 2 2 -6 -11 -41 -29 -77z"/>
<path d="M3996 5471 c-3 -4 -43 -27 -89 -49 -112 -56 -225 -82 -357 -82 -138
-1 -111 -21 36 -28 120 -5 204 15 305 74 58 35 132 93 117 94 -4 0 -9 -4 -12
-9z"/>
<path d="M3386 2309 c6 -8 19 -38 29 -68 27 -81 11 -305 -17 -232 -4 13 -13
21 -19 19 -14 -5 -72 -109 -65 -116 3 -3 -2 -11 -12 -18 -12 -10 -13 -13 -3
-14 11 0 11 -3 0 -16 -10 -12 -10 -17 -1 -23 25 -15 -109 -67 -223 -87 l-80
-14 81 5 c45 3 104 12 130 21 27 8 62 19 77 24 23 7 28 6 24 -4 -3 -8 -3 -17
0 -20 8 -8 8 -74 0 -82 -9 -10 4 -34 16 -27 6 3 7 1 3 -5 -4 -6 0 -22 8 -34
13 -22 66 -228 66 -261 0 -9 5 -19 11 -23 13 -7 9 17 -23 141 -11 45 -21 118
-21 166 -2 83 -1 87 34 140 33 50 41 55 99 72 34 10 61 20 58 22 -2 2 -26 -2
-53 -10 -59 -18 -66 -18 -89 -2 -17 13 -17 17 3 92 28 102 30 229 4 304 -10
30 -25 57 -33 59 -12 4 -13 2 -4 -9z"/>
</g>
</svg>
