<?xml version="1.0" standalone="no"?>
<!DOCTYPE svg PUBLIC "-//W3C//DTD SVG 20010904//EN"
 "http://www.w3.org/TR/2001/REC-SVG-20010904/DTD/svg10.dtd">
<svg version="1.0" xmlns="http://www.w3.org/2000/svg"
 width="512.000000pt" height="512.000000pt" viewBox="0 0 512.000000 512.000000"
 preserveAspectRatio="xMidYMid meet">

<g transform="translate(0.000000,512.000000) scale(0.100000,-0.100000)"
fill="#000000" stroke="none">
<path d="M2255 4633 c-487 -65 -970 -314 -1310 -675 -331 -352 -542 -807 -594
-1280 -14 -125 -14 -371 0 -496 55 -498 279 -962 639 -1322 336 -336 744 -545
1220 -625 131 -22 429 -31 571 -16 966 100 1756 807 1954 1751 43 204 57 498
34 708 -81 741 -537 1396 -1208 1736 -225 114 -466 189 -709 220 -154 20 -446
19 -597 -1z m578 -613 c157 -27 289 -70 442 -146 167 -82 293 -172 425 -304
224 -224 370 -494 442 -817 19 -85 22 -128 22 -323 0 -212 -1 -232 -28 -345
-99 -422 -333 -763 -684 -998 -162 -109 -339 -184 -547 -233 -113 -27 -133
-28 -345 -28 -212 0 -232 1 -345 28 -419 98 -752 324 -993 674 -109 159 -208
395 -249 599 -26 126 -25 480 0 608 44 216 149 459 274 635 87 121 252 286
373 372 192 136 432 238 659 278 150 26 401 27 554 0z"/>
<path d="M2392 3800 c-106 -14 -154 -28 -145 -43 5 -7 54 -78 109 -158 116
-165 222 -332 322 -504 60 -104 72 -120 93 -118 43 5 322 152 418 220 94 68
249 212 270 252 11 19 4 26 -76 86 -160 118 -351 204 -546 245 -108 23 -337
33 -445 20z"/>
<path d="M1875 3625 c-268 -153 -494 -417 -601 -703 -35 -91 -64 -201 -55
-206 21 -13 468 20 681 50 195 28 563 103 578 119 17 16 -478 777 -509 783 -8
1 -50 -18 -94 -43z"/>
<path d="M3530 3201 c-153 -157 -331 -280 -558 -389 -70 -33 -112 -58 -108
-65 2 -7 29 -66 59 -132 54 -120 54 -120 88 -119 19 1 104 5 189 9 201 10 378
-3 703 -52 l39 -6 -7 79 c-15 178 -68 370 -142 519 -37 74 -134 225 -155 242
-10 8 -36 -13 -108 -86z"/>
<path d="M2480 2639 c-315 -88 -721 -146 -1154 -165 l-149 -6 6 -105 c19 -294
121 -566 299 -791 l50 -63 45 68 c111 166 309 381 468 508 168 135 370 249
565 319 52 19 94 39 93 44 -6 26 -103 222 -110 221 -4 0 -55 -14 -113 -30z"/>
<path d="M3135 2284 c-79 -12 -76 -1 -33 -126 59 -171 143 -470 183 -651 19
-89 39 -175 43 -191 l7 -29 75 60 c202 161 360 379 444 613 33 91 69 237 61
249 -5 9 -115 36 -250 62 -59 11 -471 21 -530 13z"/>
<path d="M2679 2161 c-405 -166 -760 -456 -940 -769 l-29 -48 93 -61 c161
-106 300 -164 490 -205 135 -28 379 -30 512 -4 86 17 257 68 282 84 14 9 -21
187 -86 437 -45 172 -176 575 -195 599 -9 12 -28 7 -127 -33z"/>
</g>
</svg>
