<?xml version="1.0" standalone="no"?>
<!DOCTYPE svg PUBLIC "-//W3C//DTD SVG 20010904//EN"
 "http://www.w3.org/TR/2001/REC-SVG-20010904/DTD/svg10.dtd">
<svg version="1.0" xmlns="http://www.w3.org/2000/svg"
 width="512.000000pt" height="512.000000pt" viewBox="0 0 512.000000 512.000000"
 preserveAspectRatio="xMidYMid meet">

<g transform="translate(0.000000,512.000000) scale(0.100000,-0.100000)"
fill="#000000" stroke="none">
<path d="M2321 5110 c-497 -48 -990 -251 -1376 -565 -114 -92 -294 -274 -384
-387 -229 -287 -417 -675 -495 -1023 -49 -218 -60 -325 -60 -575 0 -250 11
-357 60 -575 79 -355 272 -749 509 -1040 92 -114 274 -294 387 -384 287 -229
675 -417 1023 -495 218 -49 325 -60 575 -60 250 0 357 11 575 60 261 58 603
204 828 353 389 259 688 599 893 1016 125 255 196 484 241 775 24 161 24 539
0 700 -45 291 -116 520 -241 775 -134 272 -283 480 -498 692 -211 209 -404
346 -673 478 -252 124 -486 197 -765 240 -126 19 -468 27 -599 15z m480 -650
c418 -41 769 -230 997 -538 184 -249 259 -525 232 -863 -40 -512 -239 -922
-556 -1147 -191 -137 -374 -196 -604 -196 -208 -1 -349 53 -479 181 -41 41
-75 72 -76 71 -1 -2 -34 -131 -74 -288 -90 -357 -107 -408 -186 -567 -93 -188
-278 -463 -310 -463 -23 0 -32 35 -44 161 -20 224 -23 306 -12 439 14 175 14
175 176 862 l139 587 -19 58 c-65 205 -61 424 13 593 73 168 242 283 391 265
79 -9 156 -48 193 -99 57 -78 62 -100 62 -241 -1 -143 7 -107 -135 -590 -66
-224 -71 -305 -26 -397 79 -162 257 -233 449 -179 259 71 462 373 540 800 16
90 21 159 22 311 1 175 -1 203 -22 275 -83 290 -293 490 -592 566 -121 30
-370 37 -499 15 -232 -40 -431 -144 -581 -303 -148 -155 -240 -342 -275 -555
-39 -240 -2 -422 119 -588 29 -41 46 -74 46 -93 0 -32 -46 -221 -61 -249 -10
-19 -52 -34 -84 -29 -36 5 -143 70 -199 122 -254 232 -335 734 -185 1141 107
292 326 553 605 721 277 166 682 251 1035 217z"/>
</g>
</svg>
